<?xml version="1.0" encoding="UTF-8"?>
<svg width="60px" height="20px" viewBox="0 0 60 20" version="1.1" xmlns="http://www.w3.org/2000/svg" xmlns:xlink="http://www.w3.org/1999/xlink">
    <!-- Generator: Sketch 57.1 (83088) - https://sketch.com -->
    <title>gerry 2</title>
    <desc>Created with Sketch.</desc>
    <g id="Mockups" stroke="none" stroke-width="1" fill="none" fill-rule="evenodd">
        <g id="2---About-Us" transform="translate(-45.000000, -36.000000)" fill="#091E3B" fill-rule="nonzero">
            <g id="gerry-2" transform="translate(45.000000, 36.000000)">
                <path d="M0,6.77920324 C0,5.87890614 0.160319038,5.0168846 0.480961924,4.19311276 C0.80160481,3.36934092 1.24916212,2.64461263 1.82364729,2.01890614 C2.39813246,1.39319966 3.08616834,0.900294396 3.88777555,0.540175557 C4.68938277,0.180056718 5.57113747,0 6.53306613,0 C7.28123287,0 8.02493507,0.184558136 8.76419506,0.553679946 C9.50345504,0.922801756 10.0734783,1.43146199 10.4742819,2.07967589 L10.4742819,0.337609723 L13.4535738,0.337609723 L13.4535738,13.855503 C13.4535738,14.9448625 13.2999347,15.876656 12.992652,16.6509115 C12.6853692,17.425167 12.2355852,18.0621177 11.6432866,18.5617826 C11.0509879,19.0614475 10.3340055,19.4260623 9.49231797,19.6556381 C8.65063039,19.8852138 7.69984943,20 6.63994656,20 C5.58004369,20 4.66043587,19.8469518 3.88109552,19.5408508 C3.10175518,19.2347498 2.4471191,18.8341236 1.91716767,18.3389602 C1.38721623,17.8437968 0.979738677,17.2766181 0.694722779,16.6374072 C0.40970688,15.9981962 0.249387842,15.349992 0.213760855,14.6927752 L3.21977288,14.6927752 C3.29102685,15.3950069 3.61166493,16.0071997 4.18169673,16.529372 C4.75172852,17.0515444 5.57113694,17.3126266 6.63994656,17.3126266 C7.84235738,17.3126266 8.78200508,17.0402908 9.45891784,16.4956111 C10.1358306,15.9509313 10.4742819,15.0709041 10.4742819,13.855503 L10.4742819,11.4787306 C10.0734783,12.1269445 9.50345504,12.6356047 8.76419506,13.0047265 C8.02493507,13.3738483 7.28123287,13.5584065 6.53306613,13.5584065 C5.56223073,13.5584065 4.67824937,13.3783498 3.88109552,13.0182309 C3.08394168,12.6581121 2.39813246,12.1629561 1.82364729,11.5327481 C1.24916212,10.9025402 0.80160481,10.1823133 0.480961924,9.37204591 C0.160319038,8.56177853 0,7.69750628 0,6.77920324 Z M2.97929192,6.77920324 C2.97929192,7.32838447 3.0661314,7.85279966 3.23981296,8.35246455 C3.41349452,8.85212944 3.66510635,9.28651627 3.99465598,9.65563808 C4.32420561,10.0247599 4.71609659,10.3196028 5.17034068,10.5401756 C5.62458477,10.7607483 6.13671503,10.8710331 6.70674683,10.8710331 C7.26787188,10.8710331 7.78222879,10.7607483 8.249833,10.5401756 C8.71743721,10.3196028 9.1137815,10.0247599 9.43887776,9.65563808 C9.76397401,9.28651627 10.0178125,8.85212944 10.2004008,8.35246455 C10.3829891,7.85279966 10.4742819,7.32838447 10.4742819,6.77920324 C10.4742819,6.23002201 10.3829891,5.70560682 10.2004008,5.20594193 C10.0178125,4.70627704 9.76397401,4.27189021 9.43887776,3.9027684 C9.1137815,3.53364659 8.71743721,3.23880371 8.249833,3.01823093 C7.78222879,2.79765814 7.26787188,2.6873734 6.70674683,2.6873734 C6.14562178,2.6873734 5.63571817,2.79765814 5.17702071,3.01823093 C4.71832325,3.23880371 4.32420561,3.53364659 3.99465598,3.9027684 C3.66510635,4.27189021 3.41349452,4.70402633 3.23981296,5.19918974 C3.0661314,5.69435314 2.97929192,6.22101904 2.97929192,6.77920324 Z M15.5801126,6.77920324 C15.5801126,5.82488832 15.7203918,4.93135685 16.0009543,4.09858204 C16.2815168,3.26580722 16.6867677,2.54558035 17.2167192,1.93787981 C17.7466706,1.33017927 18.4035333,0.855279676 19.187327,0.513166779 C19.9711208,0.171053883 20.8662354,0 21.8726978,0 C22.6921185,0 23.4625405,0.148546793 24.183987,0.445644835 C24.9054335,0.742742876 25.5355764,1.15237191 26.0744346,1.67454423 C26.6132928,2.19671654 27.0319036,2.80890939 27.3302796,3.51114112 C27.6286556,4.21337286 27.7778414,4.97861391 27.7778414,5.80688724 C27.7778414,6.03196151 27.7733881,6.29529446 27.7644813,6.59689399 C27.7555746,6.89849352 27.7154948,7.26085766 27.6442409,7.6839973 L18.6128447,7.6839973 C18.6128447,8.14314882 18.6774177,8.57753565 18.8065655,8.98717083 C18.9357133,9.39680601 19.1316588,9.75241803 19.3944079,10.0540176 C19.6571569,10.3556171 20.0000615,10.5941922 20.423132,10.7697502 C20.8462025,10.9453081 21.3561061,11.0330858 21.9528581,11.0330858 C22.3714752,11.0330858 22.732193,10.9880716 23.0350224,10.8980419 C23.3378518,10.8080122 23.5939169,10.6887246 23.8032255,10.5401756 C24.012534,10.3916265 24.186213,10.2115698 24.3242676,10 C24.4623222,9.78843018 24.5758815,9.57011141 24.6649489,9.34503714 L27.670961,9.34503714 C27.56408,9.89421837 27.3592279,10.423135 27.0563985,10.9318028 C26.7535691,11.4404707 26.3616781,11.8883618 25.8807138,12.2754895 C25.3997495,12.6626173 24.8297262,12.9732151 24.170627,13.2072924 C23.5115277,13.4413696 22.7722788,13.5584065 21.9528581,13.5584065 C20.8751417,13.5584065 19.9399473,13.3693469 19.1472469,12.9912221 C18.3545464,12.6130974 17.6932304,12.1089386 17.1632789,11.4787306 C16.6333275,10.8485226 16.2369832,10.1282957 15.9742342,9.31802836 C15.7114852,8.50776097 15.5801126,7.6614944 15.5801126,6.77920324 Z M18.6395648,5.45577313 L24.8787098,5.45577313 C24.8787098,4.55547603 24.5914715,3.83975057 24.0169864,3.30857529 C23.4425012,2.7774 22.7010256,2.51181634 21.7925375,2.51181634 C20.9196763,2.51181634 20.1759741,2.76164504 19.5614085,3.26130993 C18.946843,3.76097481 18.6395648,4.49245523 18.6395648,5.45577313 Z M29.3157744,13.2207968 L29.3157744,0.337609723 L32.2950663,0.337609723 L32.2950663,2.40378123 C32.4375743,2.10668319 32.6424264,1.82534456 32.9096288,1.55975692 C33.1768312,1.29416928 33.486336,1.05559413 33.8381525,0.844024308 C34.189969,0.63245449 34.5729534,0.465902026 34.9871171,0.344361918 C35.4012808,0.22282181 35.817665,0.162052667 36.2362821,0.162052667 C36.7083397,0.162052667 37.1002307,0.229573937 37.4119668,0.364618501 L37.4119668,3.11951384 C37.1714846,3.06549602 36.9733125,3.02948467 36.8174444,3.01147873 C36.6615763,2.99347279 36.4678575,2.98446995 36.2362821,2.98446995 C34.9626173,2.98446995 33.9873431,3.35808764 33.3104304,4.10533423 C32.6335176,4.85258082 32.2950663,6.03645375 32.2950663,7.65698852 L32.2950663,13.2207968 L29.3157744,13.2207968 Z M39.0876992,13.2207968 L39.0876992,0.337609723 L42.0669911,0.337609723 L42.0669911,2.40378123 C42.2094991,2.10668319 42.4143512,1.82534456 42.6815536,1.55975692 C42.948756,1.29416928 43.2582608,1.05559413 43.6100773,0.844024308 C43.9618938,0.63245449 44.3448782,0.465902026 44.7590419,0.344361918 C45.1732056,0.22282181 45.5895898,0.162052667 46.0082069,0.162052667 C46.4802645,0.162052667 46.8721555,0.229573937 47.1838916,0.364618501 L47.1838916,3.11951384 C46.9434094,3.06549602 46.7452373,3.02948467 46.5893692,3.01147873 C46.4335011,2.99347279 46.2397823,2.98446995 46.0082069,2.98446995 C44.7345421,2.98446995 43.7592679,3.35808764 43.0823552,4.10533423 C42.4054424,4.85258082 42.0669911,6.03645375 42.0669911,7.65698852 L42.0669911,13.2207968 L39.0876992,13.2207968 Z M47.8824315,14.6927752 L50.7815631,14.6927752 C50.7993766,15.4130128 51.0509884,16.0297071 51.5364061,16.5428764 C52.0218238,17.0560458 52.7855659,17.3126266 53.8276553,17.3126266 C54.9053717,17.3126266 55.7069669,17.0492937 56.2324649,16.5226199 C56.757963,15.995946 57.0207081,15.0979132 57.0207081,13.8284943 L57.0207081,11.424713 C56.6199045,12.1269448 56.0632411,12.6581121 55.3507014,13.0182309 C54.6381617,13.3783498 53.8098466,13.5584065 52.8657315,13.5584065 C51.9394298,13.5584065 51.1601011,13.4008569 50.5277221,13.0857529 C49.8953431,12.7706489 49.3965727,12.3475156 49.0313961,11.8163403 C48.71966,11.3391828 48.5059013,10.8035141 48.3901136,10.209318 C48.2743259,9.61512194 48.2164329,8.8768894 48.2164329,7.99459824 L48.2164329,0.337609723 L51.1957248,0.337609723 L51.1957248,6.99527346 C51.1957248,7.54445469 51.2402578,8.05986705 51.3293253,8.541526 C51.4183928,9.02318494 51.5698052,9.43506469 51.7835671,9.77717758 C51.9973291,10.1192905 52.280114,10.3916263 52.6319305,10.5941931 C52.983747,10.79676 53.426851,10.8980419 53.9612558,10.8980419 C55.0033452,10.8980419 55.7737673,10.5244242 56.2725451,9.77717758 C56.7713229,9.02993099 57.0207081,8.10263889 57.0207081,6.99527346 L57.0207081,0.337609723 L60,0.337609723 L60,13.8284943 C60,16.0252192 59.4322034,17.6029662 58.2965932,18.5617826 C57.160983,19.520599 55.542206,20 53.4402138,20 C52.6207931,20 51.8726375,19.8559546 51.1957248,19.5678596 C50.518812,19.2797645 49.9354289,18.8926425 49.4455578,18.4064821 C48.9556867,17.9203217 48.5727023,17.353143 48.2965932,16.7049291 C48.020484,16.0567152 47.8824315,15.3860039 47.8824315,14.6927752 Z" id="gerry"></path>
            </g>
        </g>
    </g>
</svg>